<?xml version="1.0" encoding="utf-8"?>
<!-- Generator: Adobe Illustrator 17.0.0, SVG Export Plug-In . SVG Version: 6.00 Build 0)  -->
<!DOCTYPE svg PUBLIC "-//W3C//DTD SVG 1.1//EN" "http://www.w3.org/Graphics/SVG/1.1/DTD/svg11.dtd">
<svg version="1.1" id="Ebene_1" xmlns="http://www.w3.org/2000/svg" xmlns:xlink="http://www.w3.org/1999/xlink" x="0px" y="0px"
	 width="743px" height="483px" viewBox="0 0 743 483" enable-background="new 0 0 743 483" xml:space="preserve">
<path fill="none" d="z"/>
<g transform="translate(0.5,0.5)">
	<rect x="531" y="201" pointer-events="none" fill="#FFFFFF" stroke="#000000" width="210" height="230"/>
	<g transform="translate(576.5,400.5)">
		<text transform="matrix(1 0 0 1 -8.1758 9.9717)" enable-background="new    "><tspan x="0" y="0" font-family="'Helvetica'" font-size="12">local MQTT Broker (mosca)</tspan><tspan x="34.98" y="14.4" font-family="'Helvetica'" font-size="12">localhost:1883</tspan></text>
	</g>
	<rect x="1" y="1" pointer-events="none" fill="#FFFFFF" stroke="#000000" width="122" height="150"/>
	<rect x="531" y="1" pointer-events="none" fill="#FFFFFF" stroke="#000000" width="210" height="130"/>
	<g transform="translate(533.5,8.5)">
		<text transform="matrix(1 0 0 1 4.0455 7.653)" font-family="'Helvetica'" font-size="12">mobiles Endgerät</text>
	</g>
	<rect x="559" y="31" pointer-events="none" fill="#FFFFFF" stroke="#000000" width="152" height="90"/>
	<g transform="translate(561.5,38.5)">
		<text transform="matrix(1 0 0 1 0.4287 12)" font-family="'Helvetica'" font-size="12">Webbrowser</text>
	</g>
	<rect x="65" y="61" pointer-events="none" fill="#FFFFFF" stroke="#000000" width="50" height="70"/>
	<rect x="9" y="61" pointer-events="none" fill="#FFFFFF" stroke="#000000" width="47" height="70"/>
	<rect x="151" y="1" pointer-events="none" fill="#FFFFFF" stroke="#000000" width="170" height="430"/>
	<g transform="translate(153.5,8.5)">
		<text transform="matrix(1 0 0 1 0.2998 12)" font-family="'Helvetica'" font-size="12">Raspberry Pi // OS: Raspbian</text>
	</g>
	<g transform="translate(153.5,8.5)">
		<text transform="matrix(1 0 0 1 -149.9134 5.5455)" enable-background="new    "><tspan x="0" y="0" font-family="'Helvetica'" font-size="12">Kaffeemaschine</tspan><tspan x="0" y="14.4" font-family="'Helvetica'" font-size="12">System: Senseo</tspan></text>
	</g>
	<g transform="translate(153.5,8.5)">
		<text transform="matrix(1 0 0 1 -140.8185 65.9828)" enable-background="new    "><tspan x="0" y="0" font-family="'Helvetica'" font-size="12">Ultra-</tspan><tspan x="0" y="14.4" font-family="'Helvetica'" font-size="12">schall-</tspan><tspan x="0" y="28.8" font-family="'Helvetica'" font-size="12">sensor*</tspan></text>
	</g>
	<g transform="translate(153.5,8.5)">
		<text transform="matrix(1 0 0 1 -85.0753 65.9828)" enable-background="new    "><tspan x="0" y="0" font-family="'Helvetica'" font-size="12">Buttons:</tspan><tspan x="0" y="14.4" font-family="'Helvetica'" font-size="12">I / O</tspan><tspan x="0" y="28.8" font-family="'Helvetica'" font-size="12">1cup</tspan><tspan x="0" y="43.2" font-family="'Helvetica'" font-size="12">2cups</tspan></text>
	</g>
	<rect x="171" y="297" pointer-events="none" fill="#FFFFFF" stroke="#000000" width="125" height="47"/>
	<g transform="translate(204.5,314.5)">
		<text transform="matrix(1 0 0 1 0.6582 12)" font-family="'Helvetica'" font-size="12">GPIO Pins</text>
	</g>
	<rect x="171" y="47" pointer-events="none" fill="#FFFFFF" stroke="#000000" width="125" height="104"/>
	<g transform="translate(173.5,54.5)">
		<text transform="matrix(1 0 0 1 0.6523 12)" font-family="'Helvetica'" font-size="12">node.js</text>
	</g>
	<path pointer-events="none" fill="none" stroke="#000000" stroke-miterlimit="10" d="M202.38,278l-0.69,5
		c-0.46,3.333-0.69,8.333-0.69,15v5c0,3.333-3.333,5-10,5h-13.63"/>
	<path pointer-events="none" stroke="#000000" stroke-miterlimit="10" d="M172.12,308l7-3.5l-1.75,3.5l1.75,3.5L172.12,308z"/>
	<path pointer-events="none" fill="none" stroke="#000000" stroke-miterlimit="10" d="M552.63,99.02l-262.26,0.96"/>
	<path pointer-events="none" stroke="#000000" stroke-miterlimit="10" d="M557.88,99l-6.99,3.53l1.74-3.51l-1.76-3.49L557.88,99z"/>
	<path pointer-events="none" stroke="#000000" stroke-miterlimit="10" d="M285.12,100l6.99-3.53l-1.74,3.51l1.76,3.49L285.12,100z"
		/>
	<g transform="translate(403.5,81.5)">
		<rect x="-11.618" y="-2.295" fill="#FFFFFF" width="114.359" height="40.126"/>
		<text transform="matrix(1 0 0 1 16.4823 7.9496)" enable-background="new    "><tspan x="0" y="0" font-family="'Helvetica'" font-size="11">http GET “/“</tspan><tspan x="4.574" y="13.2" font-family="'Helvetica'" font-size="11">response:</tspan><tspan x="-27.521" y="26.4" font-family="'Helvetica'" font-size="11">[website, Gerätestatus]</tspan></text>
	</g>
	<rect x="171" y="221" pointer-events="none" fill="#FFFFFF" stroke="#000000" width="125" height="60"/>
	<g transform="translate(179.5,230.5)">
		<text transform="matrix(1 0 0 1 35.9853 8.9465)" enable-background="new    "><tspan x="0" y="0" font-family="'Helvetica'" font-size="12">python</tspan><tspan x="-42.513" y="14.4" font-family="'Helvetica'" font-size="12">~/makeSmallCoffee.py</tspan><tspan x="-36.182" y="28.8" font-family="'Helvetica'" font-size="12">~/makeBigCoffee.py</tspan></text>
	</g>
	<path pointer-events="none" fill="none" stroke="#000000" stroke-miterlimit="10" d="M171,307.65l-71.2-14.64
		c-6.533-1.34-9.8-5.343-9.8-12.01V137.37"/>
	<path pointer-events="none" stroke="#000000" stroke-miterlimit="10" d="M90,132.12l3.5,7l-3.5-1.75l-3.5,1.75L90,132.12z"/>
	<path pointer-events="none" fill="none" stroke="#000000" stroke-miterlimit="10" d="M171,319.72l-129-1.6
		c-6.667-0.08-9.993-3.453-9.98-10.12l0.39-170.63"/>
	<path pointer-events="none" stroke="#000000" stroke-miterlimit="10" d="M32.42,132.12l3.48,7.01l-3.49-1.76l-3.51,1.74
		L32.42,132.12z"/>
	<g transform="translate(56.5,310.5)">
		<rect x="-1.89" y="-0.236" fill="#FFFFFF" width="32.984" height="14.236"/>
		<text transform="matrix(1 0 0 1 0.668 12)" font-family="'Helvetica'" font-size="12">TRIG</text>
	</g>
	<path pointer-events="none" fill="none" stroke="#000000" stroke-miterlimit="10" d="M21,131v191c0,6.667,3.333,10,10,10h133.63"/>
	<path pointer-events="none" stroke="#000000" stroke-miterlimit="10" d="M169.88,332l-7,3.5l1.75-3.5l-1.75-3.5L169.88,332z"/>
	<g transform="translate(54.5,326.5)">
		<rect x="0.11" y="0" fill="#FFFFFF" width="32.984" height="12.521"/>
		<text transform="matrix(1 0 0 1 0.1096 11)" font-family="'Helvetica'" font-size="11">ECHO</text>
	</g>
	<path pointer-events="none" fill="none" stroke="#000000" stroke-miterlimit="10" d="M298,244l241.63,1.95"/>
	<path pointer-events="none" stroke="#000000" stroke-miterlimit="10" d="M544.88,245.99l-7.03,3.44l1.78-3.48l-1.72-3.52
		L544.88,245.99z"/>
	<rect x="571" y="59" pointer-events="none" fill="#FFFFFF" stroke="#000000" width="130" height="45"/>
	<g transform="translate(600.5,75.5)">
		<text transform="matrix(1 0 0 1 0.3242 12)" font-family="'Helvetica'" font-size="12">mqtt.js Client</text>
	</g>
	<path pointer-events="none" fill="none" stroke="#000000" stroke-miterlimit="10" d="M604,221V110.37"/>
	<path pointer-events="none" stroke="#000000" stroke-miterlimit="10" d="M604,105.12l3.5,7l-3.5-1.75l-3.5,1.75L604,105.12z"/>
	<path pointer-events="none" fill="none" stroke="#000000" stroke-miterlimit="10" d="M233.5,151v63.63"/>
	<path pointer-events="none" stroke="#000000" stroke-miterlimit="10" d="M233.5,219.88l-3.5-7l3.5,1.75l3.5-1.75L233.5,219.88z"/>
	<g transform="translate(165.5,180.5)">
		<rect x="-2.62" y="0.351" fill="#FFFFFF" width="141.059" height="14.044"/>
		<text transform="matrix(1 0 0 1 -0.1646 11)" font-family="'Helvetica'" font-size="11">Aufruf der Ressource /skript</text>
	</g>
	<g transform="translate(15.5,414.5)">
		<text transform="matrix(1 0 0 1 0.9922 12)" font-family="'Helvetica'" font-size="12">*HC-SR04</text>
	</g>
	<rect x="184" y="89" pointer-events="none" fill="#FFFFFF" stroke="#000000" width="100" height="45"/>
	<g transform="translate(199.5,105.5)">
		<text transform="matrix(1 0 0 1 0.6514 12)" font-family="'Helvetica'" font-size="12">RESTful API</text>
	</g>
	<path pointer-events="none" fill="none" stroke="#000000" stroke-miterlimit="10" d="M642,283V109.37"/>
	<path pointer-events="none" stroke="#000000" stroke-miterlimit="10" d="M642,105.12l3.5,7l-3.5-1.75l-3.5,1.75L642,105.12z"/>
	<g transform="translate(606.5,165.5)">
		<rect x="-0.5" y="-1.027" fill="#FFFFFF" width="71.5" height="15.716"/>
		<text transform="matrix(1 0 0 1 1 12)" font-family="'Helvetica'" font-size="12">SUBSCRIBE</text>
	</g>
	<ellipse pointer-events="none" fill="#FFFFFF" stroke="#000000" cx="606" cy="246" rx="60" ry="25"/>
	<g transform="translate(555.5,232.5)">
		<text transform="matrix(1 0 0 1 34.1611 8.6247)" enable-background="new    "><tspan x="0" y="0" font-family="'Helvetica'" font-size="12">Topic:</tspan><tspan x="-33.686" y="14.4" font-family="'Helvetica'" font-size="12">coffeefy/messages</tspan></text>
	</g>
	<path pointer-events="none" fill="none" stroke="#000000" stroke-miterlimit="10" d="M681,343V110.37"/>
	<path pointer-events="none" stroke="#000000" stroke-miterlimit="10" d="M681,105.12l3.5,7l-3.5-1.75l-3.5,1.75L681,105.12z"/>
	<ellipse pointer-events="none" fill="#FFFFFF" stroke="#000000" cx="640" cy="305" rx="60" ry="25"/>
	<g transform="translate(595.5,284.5)">
		<text transform="matrix(1 0 0 1 30.1611 9.6153)" enable-background="new    "><tspan x="0" y="0" font-family="'Helvetica'" font-size="12">Topic:</tspan><tspan x="-27.349" y="14.4" font-family="'Helvetica'" font-size="12">coffeefy/sensors</tspan><tspan x="-11.007" y="28.8" font-family="'Helvetica'" font-size="12">/ultrasonic</tspan></text>
	</g>
	<ellipse pointer-events="none" fill="#FFFFFF" stroke="#000000" cx="679" cy="363" rx="60" ry="25"/>
	<g transform="translate(639.5,349.5)">
		<text transform="matrix(1 0 0 1 25.1611 8)" enable-background="new    "><tspan x="0" y="0" font-family="'Helvetica'" font-size="12">Topic:</tspan><tspan x="-22.348" y="14.4" font-family="'Helvetica'" font-size="12">coffeefy/status</tspan></text>
	</g>
	<path pointer-events="none" fill="none" stroke="#000000" stroke-miterlimit="10" d="M281,394h120c6.667,0,10-3.333,10-10v-13
		c0-6.667,3.333-10,10-10h193.63"/>
	<path pointer-events="none" stroke="#000000" stroke-miterlimit="10" d="M617.88,361l-7,3.5l1.75-3.5l-1.75-3.5L617.88,361z"/>
	<g transform="translate(432.5,342.5)">
		<rect x="2.315" y="-3.145" fill="#FFFFFF" width="67.079" height="41.463"/>
		<text transform="matrix(1 0 0 1 11.1294 8.9528)" enable-background="new    "><tspan x="0" y="0" font-family="'Helvetica'" font-size="11">PUBLISH:</tspan><tspan x="-6.424" y="13.2" font-family="'Helvetica'" font-size="11">Gerätestatus</tspan><tspan x="5.809" y="26.4" font-family="'Helvetica'" font-size="11">via mqtt</tspan></text>
	</g>
	<rect x="171" y="361" pointer-events="none" fill="#FFFFFF" stroke="#000000" width="125" height="47"/>
	<g transform="translate(172.5,364.5)">
		<text transform="matrix(1 0 0 1 18.3027 9.6153)" enable-background="new    "><tspan x="0" y="0" font-family="'Helvetica'" font-size="12">Berechnung der</tspan><tspan x="-3.653" y="14.4" font-family="'Helvetica'" font-size="12">Distanz zwischen</tspan><tspan x="-5.997" y="28.8" font-family="'Helvetica'" font-size="12">Sensor und Tasse</tspan></text>
	</g>
	<path pointer-events="none" fill="none" stroke="#000000" stroke-miterlimit="10" d="M296,385h95c6.667,0,10-3.333,10-10v-60
		c0-6.667,3.333-10,10-10h162.63"/>
	<path pointer-events="none" stroke="#000000" stroke-miterlimit="10" d="M578.88,305l-7,3.5l1.75-3.5l-1.75-3.5L578.88,305z"/>
	<g transform="translate(431.5,277.5)">
		<rect x="-0.161" y="3.5" fill="#FFFFFF" width="74.567" height="45.5"/>
		<text transform="matrix(1 0 0 1 9.8507 16.6153)" enable-background="new    "><tspan x="0" y="0" font-family="'Helvetica'" font-size="12">PUBLISH:</tspan><tspan x="-8.666" y="14.4" font-family="'Helvetica'" font-size="12">Distanz in cm</tspan><tspan x="6.337" y="28.8" font-family="'Helvetica'" font-size="12">via mqtt</tspan></text>
	</g>
	<g transform="translate(417.5,225.5)">
		<rect x="-4.552" y="-8.279" fill="#FFFFFF" width="85.937" height="47.232"/>
		<text transform="matrix(1 0 0 1 13.0855 9.6216)" enable-background="new    "><tspan x="0" y="0" font-family="'Helvetica'" font-size="11">PUBLISH:</tspan><tspan x="-17.743" y="13.2" font-family="'Helvetica'" font-size="11">Statusmeldungen</tspan><tspan x="5.809" y="26.4" font-family="'Helvetica'" font-size="11">via mqtt</tspan></text>
	</g>
	<path pointer-events="none" fill="none" stroke="#000000" stroke-miterlimit="10" d="M171,332h10c6.667,0,10,3.333,10,10v12.63"/>
	<path pointer-events="none" stroke="#000000" stroke-miterlimit="10" d="M191,359.88l-3.5-7l3.5,1.75l3.5-1.75L191,359.88z"/>
	<path pointer-events="none" fill="none" stroke="#000000" stroke-miterlimit="10" d="M201,361v-30c0-6.667-3.333-10-10-10h-13.63"
		/>
	<path pointer-events="none" stroke="#000000" stroke-miterlimit="10" d="M172.12,321l7-3.5l-1.75,3.5l1.75,3.5L172.12,321z"/>
	<rect x="361" y="1" pointer-events="none" fill="#FFFFFF" stroke="#000000" stroke-dasharray="3,3" width="140" height="70"/>
	<g transform="translate(363.5,8.5)">
		<text transform="matrix(1 0 0 1 4.1147 7.653)" font-family="'Helvetica'" font-size="12">Legende:</text>
	</g>
	<path pointer-events="none" fill="none" stroke="#000000" stroke-miterlimit="10" d="M376.14,31h107.14"/>
	<path pointer-events="none" stroke="#000000" stroke-miterlimit="10" d="M488.53,31l-7,3.5l1.75-3.5l-1.75-3.5L488.53,31z"/>
	<g transform="translate(390.5,25.5)">
		<text transform="matrix(1 0 0 1 4.6445 16)" font-family="'Helvetica'" font-size="12">unidirektional</text>
	</g>
	<path pointer-events="none" fill="none" stroke="#000000" stroke-miterlimit="10" d="M382.5,51h101.54"/>
	<path pointer-events="none" stroke="#000000" stroke-miterlimit="10" d="M377.25,51l7-3.5L382.5,51l1.75,3.5L377.25,51z"/>
	<path pointer-events="none" stroke="#000000" stroke-miterlimit="10" d="M489.29,51l-7,3.5l1.75-3.5l-1.75-3.5L489.29,51z"/>
	<g transform="translate(406.5,46.5)">
		<text transform="matrix(1 0 0 1 -5.0185 15)" font-family="'Helvetica'" font-size="12">bidirektional</text>
	</g>
</g>
<path fill="none" d="z"/>
</svg>
